<svg width="90.85" height="15.195" viewBox="0 0 90.85 15.195" xmlns="http://www.w3.org/2000/svg"><g id="svgGroup" stroke-linecap="round" fill-rule="evenodd" font-size="9pt" stroke="#f5f5f5" stroke-width="0.25mm" fill="#ffffff" style="stroke:#f5f5f5;stroke-width:0.25mm;fill:#ffffff"><path d="M 74.463 7.422 L 74.463 7.949 L 67.334 7.949 L 67.334 14.473 L 75.459 14.473 L 75.459 15 L 66.807 15 L 66.807 0.781 L 75.459 0.781 L 75.459 1.309 L 67.334 1.309 L 67.334 7.422 L 74.463 7.422 Z M 9.688 10.645 L 10.215 10.645 A 6.594 6.594 0 0 1 9.926 12.09 Q 9.54 13.264 8.701 14.019 Q 7.393 15.195 5.147 15.195 A 5.079 5.079 0 0 1 3.512 14.939 A 4.546 4.546 0 0 1 2.466 14.429 A 4.86 4.86 0 0 1 0.917 12.763 A 6.072 6.072 0 0 1 0.654 12.251 A 7.153 7.153 0 0 1 0.089 10.277 A 9.24 9.24 0 0 1 0 9.023 L 0 6.826 A 8.898 8.898 0 0 1 0.174 5.03 A 7.091 7.091 0 0 1 0.635 3.579 A 5.47 5.47 0 0 1 1.477 2.225 A 4.689 4.689 0 0 1 2.446 1.367 A 4.703 4.703 0 0 1 4.864 0.593 A 5.759 5.759 0 0 1 5.147 0.586 A 6.851 6.851 0 0 1 6.63 0.737 Q 7.647 0.963 8.404 1.524 A 4.184 4.184 0 0 1 8.692 1.758 Q 10.01 2.93 10.215 5.117 L 9.688 5.117 A 6.207 6.207 0 0 0 9.425 3.879 Q 9.07 2.803 8.32 2.134 Q 7.291 1.214 5.541 1.123 A 7.579 7.579 0 0 0 5.147 1.113 A 4.435 4.435 0 0 0 3.434 1.434 A 4.137 4.137 0 0 0 1.802 2.676 A 5.371 5.371 0 0 0 0.789 4.703 Q 0.527 5.675 0.527 6.865 L 0.527 8.955 A 8.477 8.477 0 0 0 0.665 10.515 A 6.489 6.489 0 0 0 1.094 11.929 A 4.98 4.98 0 0 0 1.874 13.188 A 4.324 4.324 0 0 0 2.72 13.945 A 4.173 4.173 0 0 0 4.998 14.666 A 5.08 5.08 0 0 0 5.147 14.668 A 6.673 6.673 0 0 0 6.417 14.554 Q 7.157 14.411 7.735 14.086 A 3.536 3.536 0 0 0 8.335 13.662 Q 9.371 12.754 9.639 11.027 A 7.371 7.371 0 0 0 9.688 10.645 Z M 42.217 7.256 L 41.68 7.256 Q 41.68 6.191 40.781 5.479 Q 39.909 4.786 38.52 4.766 A 5.767 5.767 0 0 0 38.438 4.766 A 5.142 5.142 0 0 0 37.555 4.837 Q 36.773 4.973 36.24 5.371 A 2.243 2.243 0 0 0 35.762 5.845 A 1.723 1.723 0 0 0 35.43 6.885 Q 35.43 7.388 35.581 7.738 A 1.302 1.302 0 0 0 35.733 8.003 Q 36.035 8.408 36.719 8.735 A 5.454 5.454 0 0 0 37.207 8.937 Q 37.726 9.126 38.464 9.306 A 20.517 20.517 0 0 0 38.711 9.365 Q 40.02 9.668 40.781 10.078 A 3.722 3.722 0 0 1 41.294 10.407 Q 41.565 10.617 41.752 10.857 A 2.059 2.059 0 0 1 41.885 11.05 A 2.276 2.276 0 0 1 42.168 11.793 A 3.203 3.203 0 0 1 42.227 12.422 A 2.448 2.448 0 0 1 41.97 13.55 Q 41.714 14.053 41.201 14.434 Q 40.176 15.195 38.516 15.195 A 6.395 6.395 0 0 1 37.327 15.091 Q 36.63 14.959 36.076 14.66 A 3.556 3.556 0 0 1 35.65 14.39 A 2.869 2.869 0 0 1 34.968 13.693 A 2.406 2.406 0 0 1 34.561 12.314 L 35.088 12.314 Q 35.166 13.428 36.069 14.048 A 3.22 3.22 0 0 0 37.019 14.483 Q 37.448 14.604 37.958 14.646 A 6.831 6.831 0 0 0 38.516 14.668 Q 39.737 14.668 40.562 14.178 A 2.903 2.903 0 0 0 40.816 14.009 A 2.565 2.565 0 0 0 41.31 13.534 A 1.779 1.779 0 0 0 41.699 12.412 Q 41.699 10.581 38.727 9.865 A 11.207 11.207 0 0 0 38.418 9.795 A 13.348 13.348 0 0 1 37.455 9.555 Q 36.527 9.284 35.978 8.937 A 2.608 2.608 0 0 1 35.674 8.716 A 2.16 2.16 0 0 1 34.925 7.286 A 3.095 3.095 0 0 1 34.902 6.904 A 2.264 2.264 0 0 1 35.654 5.185 A 3.067 3.067 0 0 1 35.884 4.99 A 3.5 3.5 0 0 1 37.206 4.375 Q 37.698 4.255 38.272 4.24 A 6.381 6.381 0 0 1 38.438 4.238 A 5.827 5.827 0 0 1 39.579 4.344 Q 40.269 4.481 40.81 4.8 A 3.327 3.327 0 0 1 41.182 5.054 Q 42.217 5.869 42.217 7.256 Z M 24.766 4.434 L 24.766 6.895 A 4.674 4.674 0 0 1 25.565 5.601 A 4.207 4.207 0 0 1 26.289 4.951 A 3.764 3.764 0 0 1 28.516 4.238 Q 30.215 4.238 31.04 5.2 Q 31.865 6.162 31.875 8.105 L 31.875 15 L 31.348 15 L 31.348 8.086 Q 31.338 6.408 30.672 5.592 A 2.097 2.097 0 0 0 30.654 5.571 A 2.114 2.114 0 0 0 29.685 4.929 Q 29.331 4.81 28.897 4.773 A 4.811 4.811 0 0 0 28.486 4.756 A 3.286 3.286 0 0 0 26.118 5.728 A 4.717 4.717 0 0 0 24.958 7.567 A 6.006 6.006 0 0 0 24.766 8.232 L 24.766 15 L 24.238 15 L 24.238 4.434 L 24.766 4.434 Z M 52.754 15 L 52.217 15 L 52.217 13.291 A 3.449 3.449 0 0 1 50.85 14.683 Q 50.067 15.129 48.921 15.187 A 6.917 6.917 0 0 1 48.574 15.195 A 4.707 4.707 0 0 1 47.578 15.097 Q 46.944 14.959 46.473 14.63 A 2.61 2.61 0 0 1 45.982 14.185 A 3.301 3.301 0 0 1 45.372 13.079 Q 45.209 12.597 45.143 12.009 A 7.547 7.547 0 0 1 45.098 11.24 L 45.098 4.434 L 45.625 4.434 L 45.625 11.26 A 6.168 6.168 0 0 0 45.706 12.219 Q 45.79 12.712 45.96 13.109 A 2.684 2.684 0 0 0 46.387 13.804 A 2.389 2.389 0 0 0 47.674 14.57 Q 48.076 14.668 48.555 14.668 Q 50.068 14.668 51.016 13.955 A 2.987 2.987 0 0 0 52.019 12.587 A 4.202 4.202 0 0 0 52.217 11.865 L 52.217 4.434 L 52.754 4.434 L 52.754 15 Z M 82.178 15 L 78.193 15 L 78.193 0.781 L 82.129 0.781 A 5.999 5.999 0 0 1 84.273 1.159 A 5.627 5.627 0 0 1 85.117 1.563 A 5.515 5.515 0 0 1 87.217 3.755 A 6.552 6.552 0 0 1 87.974 6.376 A 7.854 7.854 0 0 1 87.998 6.914 L 87.998 8.76 A 7.271 7.271 0 0 1 87.735 10.746 A 6.317 6.317 0 0 1 87.251 11.963 A 5.526 5.526 0 0 1 85.166 14.189 Q 83.828 14.99 82.178 15 Z M 60.85 1.582 L 61.387 1.582 L 61.387 4.434 L 63.789 4.434 L 63.789 4.971 L 61.387 4.971 L 61.387 12.471 A 5.496 5.496 0 0 0 61.416 13.056 Q 61.49 13.745 61.753 14.131 A 1.16 1.16 0 0 0 62.403 14.592 Q 62.656 14.668 62.979 14.668 A 5.311 5.311 0 0 0 63.327 14.656 Q 63.517 14.643 63.734 14.618 A 11.297 11.297 0 0 0 64.024 14.58 L 64.111 15.078 A 1.357 1.357 0 0 1 63.908 15.132 Q 63.689 15.175 63.358 15.189 A 8.351 8.351 0 0 1 63.008 15.195 A 3.271 3.271 0 0 1 62.411 15.145 Q 62.08 15.083 61.825 14.946 A 1.456 1.456 0 0 1 61.358 14.556 A 1.976 1.976 0 0 1 61.063 14.001 Q 60.856 13.421 60.85 12.539 L 60.85 4.971 L 58.897 4.971 L 58.897 4.434 L 60.85 4.434 L 60.85 1.582 Z M 82.207 1.309 L 78.721 1.309 L 78.721 14.473 L 82.129 14.473 A 5.228 5.228 0 0 0 84.849 13.745 A 5.086 5.086 0 0 0 86.768 11.714 Q 87.461 10.41 87.471 8.818 L 87.471 6.992 A 6.454 6.454 0 0 0 87.192 5.073 A 5.793 5.793 0 0 0 86.792 4.102 A 5.082 5.082 0 0 0 84.898 2.065 Q 83.682 1.328 82.207 1.309 Z M 12.432 9.98 L 12.432 9.512 A 6.773 6.773 0 0 1 12.611 7.927 A 5.638 5.638 0 0 1 13.013 6.792 A 4.634 4.634 0 0 1 13.996 5.425 A 4.328 4.328 0 0 1 14.653 4.912 Q 15.713 4.238 17.051 4.238 A 4.617 4.617 0 0 1 18.64 4.507 A 4.267 4.267 0 0 1 19.434 4.893 A 4.358 4.358 0 0 1 20.962 6.523 A 5.29 5.29 0 0 1 21.079 6.748 A 5.864 5.864 0 0 1 21.638 8.719 A 7.224 7.224 0 0 1 21.68 9.453 L 21.68 9.922 A 6.906 6.906 0 0 1 21.517 11.45 A 5.633 5.633 0 0 1 21.104 12.646 A 4.579 4.579 0 0 1 20.083 14.049 A 4.331 4.331 0 0 1 19.468 14.521 Q 18.408 15.195 17.07 15.195 A 4.61 4.61 0 0 1 15.47 14.923 A 4.263 4.263 0 0 1 14.673 14.531 A 4.411 4.411 0 0 1 13.103 12.818 A 5.282 5.282 0 0 1 13.027 12.671 A 5.858 5.858 0 0 1 12.473 10.709 A 7.198 7.198 0 0 1 12.432 9.98 Z M 56.738 0 L 56.738 15 L 56.211 15 L 56.211 0 L 56.738 0 Z M 12.959 9.609 L 12.959 9.922 Q 12.959 11.24 13.482 12.339 A 4.374 4.374 0 0 0 14.247 13.473 A 3.894 3.894 0 0 0 14.937 14.053 A 3.736 3.736 0 0 0 16.848 14.663 A 4.549 4.549 0 0 0 17.07 14.668 A 3.906 3.906 0 0 0 18.617 14.37 A 3.717 3.717 0 0 0 20.015 13.311 A 4.76 4.76 0 0 0 21.024 11.163 A 6.752 6.752 0 0 0 21.152 9.814 L 21.152 9.512 A 5.591 5.591 0 0 0 20.811 7.548 A 5.296 5.296 0 0 0 20.625 7.109 A 4.452 4.452 0 0 0 19.862 5.976 A 3.942 3.942 0 0 0 19.165 5.386 Q 18.233 4.766 17.051 4.766 A 3.848 3.848 0 0 0 15.457 5.089 A 3.755 3.755 0 0 0 14.102 6.143 A 4.893 4.893 0 0 0 13.045 8.52 A 6.694 6.694 0 0 0 12.959 9.609 Z M 89.922 14.136 A 0.535 0.535 0 0 0 89.766 14.521 A 0.644 0.644 0 0 0 89.766 14.528 A 0.517 0.517 0 0 0 89.922 14.902 A 0.537 0.537 0 0 0 90.061 15.004 A 0.531 0.531 0 0 0 90.303 15.059 Q 90.527 15.059 90.689 14.902 A 0.618 0.618 0 0 0 90.699 14.893 A 0.509 0.509 0 0 0 90.85 14.521 Q 90.85 14.297 90.689 14.136 A 0.65 0.65 0 0 0 90.684 14.131 A 0.525 0.525 0 0 0 90.303 13.975 A 0.618 0.618 0 0 0 90.289 13.975 A 0.509 0.509 0 0 0 89.922 14.136 Z" vector-effect="non-scaling-stroke"/></g></svg>